<svg id="Layer_1" data-name="Layer 1" xmlns="http://www.w3.org/2000/svg" viewBox="0 0 48 48"><defs><style>.cls-1{fill:#00455b;}</style></defs><title>email</title><path class="cls-1" d="M9.263,18.431c4.313,2.714,8.782,5.268,12.975,8.162a5.855,5.855,0,0,0,4.895,1.3,8.217,8.217,0,0,0,3.085-1.843l7.576-5.726c2.082-1.574,4.842-3.047,5.2-5.885.433-3.483-2.411-5.926-5.689-5.942-5.638-.028-11.277,0-16.915,0H11.148a18.624,18.624,0,0,0-5.131.247,6.158,6.158,0,0,0-4.34,5.482c-.041.624-.012,1.256-.012,1.88v9.38c0,2.581-.029,5.164,0,7.745A6.192,6.192,0,0,0,7.9,39.5c5.165.067,10.334,0,15.5,0,5.1,0,10.209.112,15.305,0a6.822,6.822,0,0,0,6.8-6.927c.026-2.932,0-5.866,0-8.8v-2.49a1.5,1.5,0,0,0-3,0v6.991c0,2.188.617,5.609-1.194,7.255-1.34,1.217-3.175.969-4.842.969h-25.8c-1.321,0-3.18.281-4.391-.366C4.2,35.025,4.665,32.352,4.665,30.391c0-5.231-.174-10.493,0-15.721a3.136,3.136,0,0,1,2.729-3.164,11.339,11.339,0,0,1,1.264-.012H33.645c1.356,0,2.731-.067,4.086,0a2.324,2.324,0,0,1,2.255,2.811c-.213.9-.762,1.2-1.478,1.741L31.477,21.36l-2.985,2.256c-.836.632-1.655,1.5-2.779,1.42-.946-.071-1.746-.9-2.543-1.4l-3.136-1.973-7.72-4.857-1.537-.966c-1.639-1.031-3.146,1.564-1.514,2.59Z"/></svg>