<svg xmlns="http://www.w3.org/2000/svg" viewBox="0 0 624 140"><defs><style>.cls-1{fill:#001a3f;}.cls-2{fill:#f29f05;}.cls-3{fill:none;stroke:#f29f05;stroke-linecap:round;stroke-miterlimit:10;stroke-width:3px;}</style></defs><title>new logo</title><g id="Layer_1" data-name="Layer 1"><path class="cls-1" d="M392.7,101.21c4.324-.842,4.8,5.05-1.142,6.6a80.706,80.706,0,0,1-17.867,1.936,41.845,41.845,0,0,1-14.606-2.717,28.392,28.392,0,0,1-11.595-8.273,35.715,35.715,0,0,1-7.076-14.177,65.587,65.587,0,0,1-2.134-17.794,77.689,77.689,0,0,1,4.048-24.1q3.879-11.419,12.134-17.959t22.179-6.351c6.774.091,10.747,1.095,19.3,3.476,1.609.448,2.835,5.017-1.98,4.511-3.166-.332-6.842-1.6-9.8-2.189a44.691,44.691,0,0,0-8.118-.935,27.552,27.552,0,0,0-14.046,3.328,29.04,29.04,0,0,0-10.256,9.815,44.15,44.15,0,0,0-5.912,14.3,76.243,76.243,0,0,0-1.906,15.92A65.589,65.589,0,0,0,345.6,82.686a28.62,28.62,0,0,0,5.859,12.248,27.034,27.034,0,0,0,10.066,7.3,32.9,32.9,0,0,0,12.611,2.647,40.049,40.049,0,0,0,7.839-.722A85.977,85.977,0,0,0,392.7,101.21Zm3.242-79.368c1.446,1,2.8,5.329-1.98,4.511-3.072-.525-6.842-1.6-9.8-2.189"/><path class="cls-1" d="M552.845,105.942c.046-2.356.747-11.994.747-11.994l2-53.8.382-15.652a3.264,3.264,0,0,1,2.574-3.014q6.72-1.593,11.964-2.3a90.58,90.58,0,0,1,12.058-.832,40.159,40.159,0,0,1,16.068,2.941,21.368,21.368,0,0,1,10.533,10.073,34.257,34.257,0,0,1,3.756,16.223,39.215,39.215,0,0,1-3.973,17.649,26.441,26.441,0,0,1-10.75,11.8,30.52,30.52,0,0,1-15.11,3.774,35.282,35.282,0,0,1-7.375-.773,26,26,0,0,1-6.649-2.347,18.879,18.879,0,0,1-5.149-3.863,40.233,40.233,0,0,1-4.933-7.16L558,98.108v2.021a40.694,40.694,0,0,0,.064,5.813c.076,1.028-.055,3.815-2.354,3.815C552.771,109.757,552.825,106.973,552.845,105.942Zm8.138-80.163q-.517,5.051-.938,14.44t-.424,12.42a38.034,38.034,0,0,0,1.15,9.6,18.428,18.428,0,0,0,4.583,8.081,22.167,22.167,0,0,0,8.121,5.5,26.294,26.294,0,0,0,9.712,1.842A22.933,22.933,0,0,0,605,63.305a37.7,37.7,0,0,0,3.152-15.48,30.5,30.5,0,0,0-3.248-14.5,20,20,0,0,0-8.816-8.884,28.054,28.054,0,0,0-12.635-2.763A68.709,68.709,0,0,0,560.983,25.779Z"/><path class="cls-1" d="M252.08,106.467a3.249,3.249,0,0,1-2.9,3.29c-2.374.022-2.95-2.318-2.88-3.64.7-13.173,2.921-51.782,2.921-51.782l.132-4.7V48.549a33.644,33.644,0,0,0-1.97-12.492,18.536,18.536,0,0,0-6.332-8.075,26.209,26.209,0,0,0-9.536-4.45,48.553,48.553,0,0,0-11.29-1.24A51.51,51.51,0,0,0,208.97,23.5a28.78,28.78,0,0,0-7.5,2.734,20.963,20.963,0,0,0-4.959,3.687,22.207,22.207,0,0,0-3.788,5.055,22.476,22.476,0,0,0-2.257,5.944,94.667,94.667,0,0,0-1.653,14.94l-1.266,26.13c-.424,9.833-.67,17.16-.636,24.477.007,1.467-1.493,1.992-2.828,1.992-1.583,0-2.827-.962-2.772-1.992.373-7.021,1.664-28.948,1.664-28.948L184.054,52a78.195,78.195,0,0,1,1.907-13.928,26.271,26.271,0,0,1,2.606-6.3,21.845,21.845,0,0,1,3.942-4.837,26.842,26.842,0,0,1,6.294-4.26,35.838,35.838,0,0,1,8.646-3.057,61.6,61.6,0,0,1,12.583-1.271,55.021,55.021,0,0,1,12.906,1.4,31.736,31.736,0,0,1,9.34,3.82,25.991,25.991,0,0,1,6.93,5.982,20.742,20.742,0,0,1,3.56,7.12A36.883,36.883,0,0,1,254.1,47.3q0,5.6-.381,13.171l-1.457,33.97C252.143,98.387,252.159,97.5,252.08,106.467Z"/><path class="cls-1" d="M292.335,107.056c.509-6.729,1.028-16.546,1.658-31.543s.689-23.083.943-29.373c.042-1.035-.452-5.478,2.507-5.3,2.934.178,2.646,4.264,2.584,5.3-.458,7.65-1.176,18.054-1.748,31.242s-.292,22.664-.853,29.674a2.624,2.624,0,0,1-2.753,2.7C292.332,109.757,292.256,108.1,292.335,107.056Z"/><ellipse class="cls-2" cx="296.19" cy="25.826" rx="7.879" ry="7.475"/><path class="cls-1" d="M78.755,114.759h0c-21.723-2.853-37.389-19.96-34.992-38.21l8.146-62.013s16.2-6.788,37.162,7.65c17.79,12.25,41.5,2.683,41.5,2.683l-8.146,62.014C120.03,105.132,100.477,117.613,78.755,114.759Z"/><path class="cls-3" d="M129.5,40.5c12.546,7.12,19.639,17.452,18.565,26.789C146.125,84.161,117.227,94.7,83.519,90.82S24.059,70.125,26,53.254c1.089-9.47,8.343-16.7,22.5-20.754"/><circle class="cls-2" cx="107" cy="50" r="8"/><circle class="cls-2" cx="71.5" cy="68.5" r="6.5"/><path class="cls-1" d="M466.815,114.759h0c-21.723-2.853-37.389-19.96-34.992-38.21l8.146-62.013s16.195-6.788,37.162,7.65c17.79,12.25,41.5,2.683,41.5,2.683l-8.146,62.014C508.09,105.132,488.537,117.613,466.815,114.759Z"/><circle class="cls-2" cx="494.282" cy="47.566" r="8"/><circle class="cls-2" cx="458.782" cy="66.066" r="6.5"/></g></svg>