<svg xmlns="http://www.w3.org/2000/svg" viewBox="0 0 48 48"><defs><style>.cls-1{fill:#00455b;}.cls-2{fill:#f2aa6b;}</style></defs><title>menu</title><g id="menu"><g id="line-top"><path class="cls-1" d="M3.858,7.8H42.123a1.5,1.5,0,0,0,0-3H3.858a1.5,1.5,0,0,0,0,3Z"/></g><g id="line-middle"><path class="cls-1" d="M4.362,22.975H33.37a1.5,1.5,0,0,0,0-3H4.362a1.5,1.5,0,0,0,0,3Z"/></g><g id="line-bottom"><path class="cls-1" d="M17.136,37.784H42.123a1.5,1.5,0,0,0,0-3H17.136a1.5,1.5,0,0,0,0,3Z"/></g><circle id="cirlce-b" class="cls-2" cx="7.086" cy="36.826" r="4.086"/><circle id="circle-m" class="cls-2" cx="42.123" cy="21.584" r="3.877"/></g></svg>