<svg id="Layer_1" data-name="Layer 1" xmlns="http://www.w3.org/2000/svg" viewBox="0 0 48 48"><defs><style>.cls-1{fill:#00455b;}</style></defs><title>time</title><path class="cls-1" d="M40,32.26A18.006,18.006,0,0,1,7.115,30.267,18.015,18.015,0,0,1,29.638,6.9,18.175,18.175,0,0,1,42,24l1.5-1.5h-19L26,24V13a1.5,1.5,0,0,0-3,0V24a1.522,1.522,0,0,0,1.5,1.5h19A1.52,1.52,0,0,0,45,24,21.212,21.212,0,0,0,33.248,5.146,21.01,21.01,0,0,0,3.484,28.494a21.17,21.17,0,0,0,15.2,15.827,21.245,21.245,0,0,0,23.9-10.546c.91-1.7-1.679-3.22-2.59-1.515Z"/></svg>