<svg id="Layer_1" data-name="Layer 1" xmlns="http://www.w3.org/2000/svg" viewBox="0 0 48 48"><defs><style>.cls-1{fill:#00455b;}</style></defs><title>contact</title><path class="cls-1" d="M38.886,41.407c-1.028,1.428-2.773,1.1-4.3.92a21.183,21.183,0,0,1-4.651-1.143,35.274,35.274,0,0,1-9.47-5.28A39.2,39.2,0,0,1,7.258,18.5a21.037,21.037,0,0,1-1.147-4.826c-.161-1.488-.456-3,.883-4.037,1.27-.979,2.7-1.8,4.034-2.689,1.122-.748,2.2-1.531,3.03.047.821,1.555,1.618,3.124,2.428,4.685.621,1.2,2.419,3.353,1.1,4.556-1.157,1.057-2.511,1.953-3.749,2.915a1.511,1.511,0,0,0-.234,1.818A33.758,33.758,0,0,0,27.429,34.837a1.521,1.521,0,0,0,1.818-.234c.961-1.232,1.873-2.525,2.893-3.708,1.084-1.257,2.348-.159,3.513.441l5.305,2.735a3.985,3.985,0,0,1,1.312.788c.507.667.053,1.329-.327,1.905l-3.057,4.643c-1.064,1.617,1.532,3.121,2.591,1.514l3.1-4.7a4.276,4.276,0,0,0-1.382-6.367c-1.806-1.012-3.691-1.9-5.53-2.851-1.815-.935-3.727-2.293-5.849-1.507-2.041.757-3.408,3.35-4.686,4.988l1.818-.234A30.925,30.925,0,0,1,16.2,19.457l-.234,1.818A31.112,31.112,0,0,0,20.074,18c1.885-2.086.806-4.349-.274-6.435L16.755,5.689C15.534,3.332,12.99,2.208,10.56,3.662c-1.665,1-3.266,2.153-4.869,3.246a5.946,5.946,0,0,0-2.533,3.237c-.522,1.767-.062,3.932.246,5.705A30.941,30.941,0,0,0,8.186,26.983a45.078,45.078,0,0,0,8.933,10.059,39.466,39.466,0,0,0,12.393,7.164,25.671,25.671,0,0,0,6.48,1.252,5.87,5.87,0,0,0,5.485-2.537C42.606,41.351,40.005,39.852,38.886,41.407Z"/></svg>