<svg id="Layer_1" data-name="Layer 1" xmlns="http://www.w3.org/2000/svg" viewBox="0 0 48 48"><defs><style>.cls-1{fill:#f2aa6b;}.cls-2{fill:#00455b;}</style></defs><title>location</title><circle class="cls-1" cx="23" cy="20.168" r="5.63"/><path class="cls-2" d="M20.073,44.38a67.51,67.51,0,0,1-6.581-9.159c-3.2-5.268-5.965-11.158-4.581-17.445C10.284,11.542,15.2,5.849,21.85,5.3c6.616-.542,12.4,4.045,14.565,10.126a16.8,16.8,0,0,1,.136,11.149,63.686,63.686,0,0,1-6.427,13.032,1.5,1.5,0,0,0,2.591,1.514,72.7,72.7,0,0,0,6.349-12.647,20.072,20.072,0,0,0,.917-11.5C38.405,9.845,32.787,3.519,25.356,2.444,17.841,1.356,10.755,5.8,7.563,12.536A20.252,20.252,0,0,0,5.619,23.463a29.4,29.4,0,0,0,3.273,9.682A67.456,67.456,0,0,0,17.952,46.5c1.265,1.462,3.379-.667,2.121-2.122Z"/></svg>